<?xml version="1.0" encoding="UTF-8" standalone="no"?>
<svg
   id="Layer_1"
   version="1.1"
   viewBox="0 0 576.4 576"
   sodipodi:docname="citron.svg"
   inkscape:version="1.4.2 (ebf0e940d0, 2025-05-08)"
   inkscape:export-filename="citron.png"
   inkscape:export-xdpi="96"
   inkscape:export-ydpi="96"
   xmlns:inkscape="http://www.inkscape.org/namespaces/inkscape"
   xmlns:sodipodi="http://sodipodi.sourceforge.net/DTD/sodipodi-0.dtd"
   xmlns="http://www.w3.org/2000/svg"
   xmlns:svg="http://www.w3.org/2000/svg">
  <sodipodi:namedview
     id="namedview10"
     pagecolor="#ffffff"
     bordercolor="#000000"
     borderopacity="0.25"
     inkscape:showpageshadow="2"
     inkscape:pageopacity="0.0"
     inkscape:pagecheckerboard="0"
     inkscape:deskcolor="#d1d1d1"
     showgrid="false"
     inkscape:lockguides="true"
     showguides="true"
     inkscape:zoom="0.79058467"
     inkscape:cx="213.76585"
     inkscape:cy="273.21552"
     inkscape:window-width="1600"
     inkscape:window-height="849"
     inkscape:window-x="0"
     inkscape:window-y="27"
     inkscape:window-maximized="1"
     inkscape:current-layer="Layer_1">
    <inkscape:grid
       id="grid10"
       units="px"
       originx="0"
       originy="0"
       spacingx="0.99999996"
       spacingy="1"
       empcolor="#0099e5"
       empopacity="0.30196078"
       color="#0099e5"
       opacity="0.14902"
       empspacing="5"
       enabled="true"
       visible="false" />
  </sodipodi:namedview>
  <!-- Generator: Adobe Illustrator 29.0.1, SVG Export Plug-In . SVG Version: 2.1.0 Build 192)  -->
  <defs
     id="defs1">
    <style
       id="style1">
      .st0 {
        fill: #2eb34a;
      }

      .st1 {
        fill: #f1b941;
      }

      .st2 {
        fill: #ee852f;
      }

      .st3 {
        fill: #f9ee47;
      }
    </style>
  </defs>
  <path
     class="st1"
     d="m 192.59031,153.00279 h 96.66387 l -67.53053,69.19166 c -17.63334,-17.95277 -28.81389,-43.89166 -29.13334,-69.19166 z"
     id="path2"
     style="fill:#f367a9;fill-opacity:1;stroke-width:0.638889" />
  <path
     class="st1"
     d="m 192.59031,142.0139 c 0.25556,-25.49166 11.56389,-50.919424 29.13334,-69.191654 l 67.53053,69.191654 z"
     id="path3"
     style="fill:#f367a9;fill-opacity:1;stroke-width:0.638889" />
  <path
     class="st1"
     d="m 298.07085,257.33333 c -25.23611,-0.83055 -49.13055,-10.54165 -68.10554,-26.89721 l 68.10554,-68.68055 z"
     id="path4"
     style="fill:#f367a9;fill-opacity:1;stroke-width:0.638889" />
  <path
     class="st1"
     d="M 298.07085,133.19724 229.96531,64.005588 c 6.96388,-4.088894 12.96943,-9.519447 20.12499,-13.416667 14.56667,-7.858334 31.36944,-12.458329 47.98055,-12.969444 z"
     id="path5"
     style="fill:#f367a9;fill-opacity:1;stroke-width:0.638889" />
  <path
     class="st1"
     d="m 163.07363,373.73888 v -96.66387 l 69.19167,67.53053 c -17.95277,17.63334 -43.89166,28.81388 -69.19167,29.13334 z"
     id="path2-4"
     style="fill:#f367c6;fill-opacity:1;stroke-width:0.638889" />
  <path
     class="st1"
     d="M 152.08475,373.73888 C 126.59309,373.48332 101.16531,362.17499 82.893087,344.60554 L 152.08475,277.07501 Z"
     id="path3-8"
     style="fill:#f367c6;fill-opacity:1;stroke-width:0.638889" />
  <path
     class="st1"
     d="m 267.40418,268.25833 c -0.83055,25.23611 -10.54165,49.13056 -26.89721,68.10555 l -68.68055,-68.10555 z"
     id="path4-0"
     style="fill:#f367c6;fill-opacity:1;stroke-width:0.638889" />
  <path
     class="st1"
     d="M 143.26809,268.25833 74.076429,336.36388 C 69.987533,329.39999 64.556982,323.39445 60.659763,316.23889 52.801428,301.67221 48.201433,284.86945 47.690317,268.25833 Z"
     id="path5-0"
     style="fill:#f367c6;fill-opacity:1;stroke-width:0.638889" />
  <path
     class="st1"
     d="m 383.80973,403.25555 h -96.66387 l 67.53053,-69.19167 c 17.63334,17.95278 28.81388,43.89167 29.13334,69.19167 z"
     id="path2-4-1"
     style="fill:#67f3c7;fill-opacity:1;stroke-width:0.638889" />
  <path
     class="st1"
     d="m 383.80973,414.24444 c -0.25557,25.49165 -11.56389,50.91943 -29.13334,69.19167 l -67.53053,-69.19167 z"
     id="path3-8-3"
     style="fill:#67f3c7;fill-opacity:1;stroke-width:0.638889" />
  <path
     class="st1"
     d="m 278.32918,298.925 c 25.23611,0.83056 49.13056,10.54166 68.10555,26.89721 l -68.10555,68.68056 z"
     id="path4-0-4"
     style="fill:#67f3c7;fill-opacity:1;stroke-width:0.638889" />
  <path
     class="st1"
     d="m 278.32918,423.06111 68.10555,69.19166 c -6.96389,4.08888 -12.96943,9.51943 -20.12499,13.41667 -14.56668,7.85832 -31.36944,12.45831 -47.98056,12.96943 z"
     id="path5-0-5"
     style="fill:#67f3c7;fill-opacity:1;stroke-width:0.638889" />
  <path
     class="st1"
     d="m 413.3264,182.51946 v 96.66387 L 344.13473,211.6528 c 17.95278,-17.63334 43.89167,-28.81389 69.19167,-29.13334 z"
     id="path2-4-1-7"
     style="fill:#e8f367;fill-opacity:1;stroke-width:0.638889" />
  <path
     class="st1"
     d="m 424.31529,182.51946 c 25.49165,0.25556 50.91943,11.56389 69.19167,29.13334 l -69.19167,67.53053 z"
     id="path3-8-3-8"
     style="fill:#e8f367;fill-opacity:1;stroke-width:0.638889" />
  <path
     class="st1"
     d="m 308.99585,288 c 0.83056,-25.23611 10.54166,-49.13055 26.89721,-68.10554 L 404.57362,288 Z"
     id="path4-0-4-0"
     style="fill:#e8f367;fill-opacity:1;stroke-width:0.638889" />
  <path
     class="st1"
     d="m 433.13196,288 69.19166,-68.10554 c 4.08888,6.96388 9.51943,12.96943 13.41667,20.12499 7.85832,14.56667 12.45831,31.36944 12.96943,47.98055 z"
     id="path5-0-5-0"
     style="fill:#e8f367;fill-opacity:1;stroke-width:0.638889" />
  <path
     class="st1"
     d="m 132.11603,257.25773 68.35169,-68.35167 1.17458,96.67719 c -25.16317,-0.22587 -51.41058,-10.6616 -69.52627,-28.32552 z"
     id="path2-6"
     style="fill:#f367ef;fill-opacity:1;stroke-width:0.638889" />
  <path
     class="st1"
     d="M 124.34572,249.48743 C 106.50109,231.28138 96.517143,205.30504 96.020194,179.96116 l 96.677196,1.17459 z"
     id="path3-1"
     style="fill:#f367ef;fill-opacity:1;stroke-width:0.638889" />
  <path
     class="st1"
     d="m 280.47488,256.44456 c -18.43191,17.25735 -42.19463,27.28648 -67.17709,29.13869 l -0.4066,-96.72236 z"
     id="path4-00"
     style="fill:#f367ef;fill-opacity:1;stroke-width:0.638889" />
  <path
     class="st1"
     d="m 192.69739,168.66709 -97.083776,-0.76802 c 2.032924,-7.81548 2.439518,-15.90205 4.743506,-23.71751 4.74351,-15.85687 13.37217,-30.99092 24.75659,-43.09816 z"
     id="path5-2"
     style="fill:#f367ef;fill-opacity:1;stroke-width:0.638889" />
  <path
     class="st1"
     d="m 267.32858,434.21315 -68.35167,-68.35169 96.67719,-1.17457 c -0.22587,25.16317 -10.6616,51.41058 -28.32552,69.52626 z"
     id="path2-4-0"
     style="fill:#7767f3;fill-opacity:1;stroke-width:0.638889" />
  <path
     class="st1"
     d="m 259.55828,441.98348 c -18.20605,17.84462 -44.18239,27.82858 -69.52627,28.32551 l 1.17459,-96.67719 z"
     id="path3-8-6"
     style="fill:#7767f3;fill-opacity:1;stroke-width:0.638889" />
  <path
     class="st1"
     d="m 266.51541,285.85431 c 17.25735,18.43192 27.28648,42.19463 29.13869,67.17709 l -96.72236,0.40659 z"
     id="path4-0-8"
     style="fill:#7767f3;fill-opacity:1;stroke-width:0.638889" />
  <path
     class="st1"
     d="m 178.73794,373.6318 -0.76802,97.08377 c -7.81548,-2.03293 -15.90205,-2.43951 -23.71751,-4.74351 -15.85687,-4.7435 -30.99093,-13.37216 -43.09816,-24.75658 z"
     id="path5-0-4"
     style="fill:#7767f3;fill-opacity:1;stroke-width:0.638889" />
  <path
     class="st1"
     d="m 444.284,299.0006 -68.35169,68.35169 -1.17457,-96.67721 c 25.16317,0.22589 51.41058,10.6616 69.52626,28.32552 z"
     id="path2-4-1-3"
     style="fill:#67f392;fill-opacity:1;stroke-width:0.638889" />
  <path
     class="st1"
     d="m 452.05433,306.77092 c 17.84462,18.20603 27.82858,44.18237 28.32551,69.52626 l -96.67719,-1.17458 z"
     id="path3-8-3-85"
     style="fill:#67f392;fill-opacity:1;stroke-width:0.638889" />
  <path
     class="st1"
     d="m 295.92516,299.81378 c 18.43192,-17.25735 42.19463,-27.28648 67.17709,-29.1387 l 0.40659,96.72238 z"
     id="path4-0-4-3"
     style="fill:#67f392;fill-opacity:1;stroke-width:0.638889" />
  <path
     class="st1"
     d="m 383.70265,387.59125 97.08377,0.76801 c -2.03293,7.8155 -2.43951,15.90205 -4.74351,23.71752 -4.7435,15.85687 -13.37216,30.99093 -24.75658,43.09817 z"
     id="path5-0-5-03"
     style="fill:#67f392;fill-opacity:1;stroke-width:0.638889" />
  <path
     class="st1"
     d="m 309.07145,122.04518 68.35169,68.35169 -96.67721,1.17458 c 0.22589,-25.16317 10.6616,-51.41058 28.32552,-69.52627 z"
     id="path2-4-1-7-2"
     style="fill:#f3c867;fill-opacity:1;stroke-width:0.638889" />
  <path
     class="st1"
     d="M 316.84177,114.27487 C 335.0478,96.430249 361.02414,86.446306 386.36803,85.949353 l -1.17459,96.677187 z"
     id="path3-8-3-8-8"
     style="fill:#f3c867;fill-opacity:1;stroke-width:0.638889" />
  <path
     class="st1"
     d="m 309.88463,270.40403 c -17.25735,-18.43191 -27.28648,-42.19463 -29.1387,-67.17709 l 96.72238,-0.4066 z"
     id="path4-0-4-0-0"
     style="fill:#f3c867;fill-opacity:1;stroke-width:0.638889" />
  <path
     class="st1"
     d="m 397.6621,182.62654 0.76801,-97.083765 c 7.8155,2.032927 15.90205,2.43952 23.71752,4.743502 15.85687,4.743502 30.99093,13.372163 43.09817,24.756583 z"
     id="path5-0-5-0-9"
     style="fill:#f3c867;fill-opacity:1;stroke-width:0.638889" />
  <path
     id="path1-3-2-8-6"
     style="fill:#010000;fill-opacity:1;stroke-width:0.638889"
     class="st2"
     d="M 473.01611,107.27255 C 413.06719,51.660572 316.52554,69.776263 280.74593,144.13637 c -20.82625,43.32406 -12.28794,99.38778 21.41355,133.99279 l -13.95946,13.95947 C 255.58276,257.66433 242.79788,206.93139 254.72442,161.21301 281.73982,57.397964 409.36277,20.940726 486.97559,93.313081 Z m -13.95948,355.67271 c 55.61199,-59.94891 37.49631,-156.49057 -36.86381,-192.27018 -43.32406,-20.82625 -99.38778,-12.28794 -133.9928,21.41355 l -13.95946,-13.95947 c 34.4243,-32.61725 85.15723,-45.40213 130.87562,-33.47559 103.81505,27.0154 140.27228,154.63835 67.89993,232.25117 z M 278.32918,529.62775 C 360.04307,526.56109 415.49863,445.48609 388.21806,367.60555 372.30973,322.24443 326.62918,288.63887 278.32918,288 v -19.74167 c 47.40556,1.27779 92.31943,28.11112 116.21389,68.87223 54.30554,92.5111 -10.15834,208.5333 -116.21389,212.23886 z M 103.38393,448.98578 c 59.94891,55.61199 156.49058,37.49631 192.27017,-36.86381 20.82625,-43.32406 12.28795,-99.38778 -21.41354,-133.99281 l 13.95946,-13.95945 c 32.61726,34.4243 45.40213,85.15723 33.4756,130.87562 -27.0154,103.81505 -154.63835,140.27229 -232.251164,67.89993 z M 117.3434,93.313081 C 61.731413,153.26199 79.847104,249.80366 154.20721,285.58325 197.53128,306.4095 253.595,297.8712 288.20002,264.16971 l 13.95946,13.95945 c -34.4243,32.61727 -85.15724,45.40215 -130.87562,33.47561 C 67.468804,284.58937 31.011566,156.96642 103.38393,79.353615 Z M 539.6986,288 C 536.63193,206.28612 455.55694,150.83057 377.6764,178.11112 332.31528,194.01946 298.70972,239.7 298.07085,288 H 278.32918 C 279.60697,240.59445 306.4403,195.68057 347.20141,171.78613 439.71251,117.48059 555.73471,181.94447 559.44027,288 Z M 36.701429,268.25833 c 3.066663,81.71389 84.141661,137.16945 162.022221,109.88888 45.36111,-15.90833 78.96666,-61.58888 79.60553,-109.88888 h 19.74167 c -1.27779,47.40556 -28.1111,92.31943 -68.87221,116.21389 C 136.68752,438.77776 20.665322,374.31388 16.959761,268.25833 Z M 298.07085,26.630588 C 216.35697,29.697252 160.90141,110.77224 188.18197,188.6528 c 15.90834,45.36111 61.58888,78.96666 109.88888,79.60553 V 288 C 250.6653,286.72221 205.75142,259.8889 181.85698,219.12779 127.55144,126.61667 192.01532,10.594481 298.07085,6.88892 Z" />
</svg>
